<?xml version="1.0" encoding="UTF-8" standalone="no"?>
<!DOCTYPE svg PUBLIC "-//W3C//DTD SVG 1.1//EN"
 "http://www.w3.org/Graphics/SVG/1.1/DTD/svg11.dtd">
<!-- Generated by graphviz version 2.38.0 (20140413.2041)
 -->
<!-- Title: A Pages: 1 -->
<svg width="1109pt" height="808pt"
 viewBox="0.00 0.00 1108.89 807.60" xmlns="http://www.w3.org/2000/svg" xmlns:xlink="http://www.w3.org/1999/xlink">
<g id="graph0" class="graph" transform="scale(1 1) rotate(0) translate(4 803.6)">
<title>A</title>
<polygon fill="white" stroke="none" points="-4,4 -4,-803.6 1104.89,-803.6 1104.89,4 -4,4"/>
<g id="clust1" class="cluster"><title>clusterIS0</title>
<polygon fill="none" stroke="black" points="31.9464,-233 31.9464,-367 219.946,-367 219.946,-233 31.9464,-233"/>
</g>
<g id="clust2" class="cluster"><title>clusterF0</title>
<polygon fill="none" stroke="black" points="420.946,-479 420.946,-608 818.946,-608 818.946,-479 420.946,-479"/>
</g>
<!-- 40 -->
<g id="node1" class="node"><title>40</title>
<ellipse fill="black" stroke="black" cx="774.946" cy="-709.8" rx="1.8" ry="1.8"/>
</g>
<!-- 42 -->
<g id="node2" class="node"><title>42</title>
<ellipse fill="none" stroke="white" cx="497.946" cy="-654" rx="27" ry="18"/>
<text text-anchor="middle" x="497.946" y="-650.3" font-family="Times New Roman,serif" font-size="14.00">0</text>
</g>
<!-- 40&#45;&#45;42 -->
<g id="edge1" class="edge"><title>40&#45;&#45;42</title>
<path fill="none" stroke="black" d="M773.456,-708.511C755.954,-705.111 589.017,-672.688 523.837,-660.029"/>
</g>
<!-- 47 -->
<g id="node25" class="node"><title>47</title>
<ellipse fill="none" stroke="white" cx="837.946" cy="-654" rx="27" ry="18"/>
<text text-anchor="middle" x="837.946" y="-650.3" font-family="Times New Roman,serif" font-size="14.00">1</text>
</g>
<!-- 40&#45;&#45;47 -->
<g id="edge24" class="edge"><title>40&#45;&#45;47</title>
<path fill="none" stroke="black" d="M776.04,-707.866C781.399,-703.29 805.298,-682.88 821.784,-668.802"/>
</g>
<!-- 48 -->
<g id="node28" class="node"><title>48</title>
<ellipse fill="none" stroke="white" cx="712.946" cy="-654" rx="27" ry="18"/>
<text text-anchor="middle" x="712.946" y="-650.3" font-family="Times New Roman,serif" font-size="14.00">2</text>
</g>
<!-- 40&#45;&#45;48 -->
<g id="edge27" class="edge"><title>40&#45;&#45;48</title>
<path fill="none" stroke="black" d="M773.87,-707.866C768.596,-703.29 745.076,-682.88 728.853,-668.802"/>
</g>
<!-- 53 -->
<g id="node48" class="node"><title>53</title>
<ellipse fill="none" stroke="white" cx="955.946" cy="-654" rx="27" ry="18"/>
<text text-anchor="middle" x="955.946" y="-650.3" font-family="Times New Roman,serif" font-size="14.00">3</text>
</g>
<!-- 40&#45;&#45;53 -->
<g id="edge47" class="edge"><title>40&#45;&#45;53</title>
<path fill="none" stroke="black" d="M776.511,-708.335C789.917,-704.35 886.051,-675.776 931.829,-662.169"/>
</g>
<!-- 18 -->
<g id="node3" class="node"><title>18</title>
<polygon fill="#00cd00" stroke="black" points="375.946,-600 285.946,-600 285.946,-564 375.946,-564 375.946,-600"/>
<text text-anchor="middle" x="330.946" y="-578.3" font-family="Times New Roman,serif" font-size="14.00">define[fib(n)]</text>
</g>
<!-- 42&#45;&#45;18 -->
<g id="edge23" class="edge"><title>42&#45;&#45;18</title>
<path fill="none" stroke="black" d="M475.77,-643.705C449.241,-632.585 404.307,-613.75 371.511,-600.003"/>
</g>
<!-- 17 -->
<g id="node4" class="node"><title>17</title>
<ellipse fill="black" stroke="black" cx="311.946" cy="-505" rx="1.8" ry="1.8"/>
</g>
<!-- 18&#45;&#45;17 -->
<g id="edge22" class="edge"><title>18&#45;&#45;17</title>
<path fill="none" stroke="black" d="M326.635,-563.981C321.555,-543.928 313.619,-512.602 312.176,-506.904"/>
</g>
<!-- 43 -->
<g id="node5" class="node"><title>43</title>
<ellipse fill="none" stroke="white" cx="177.946" cy="-423" rx="27" ry="18"/>
<text text-anchor="middle" x="177.946" y="-419.3" font-family="Times New Roman,serif" font-size="14.00">0</text>
</g>
<!-- 17&#45;&#45;43 -->
<g id="edge2" class="edge"><title>17&#45;&#45;43</title>
<path fill="none" stroke="black" d="M310.441,-503.102C299.486,-496.561 231.467,-455.953 197.377,-435.601"/>
</g>
<!-- 46 -->
<g id="node14" class="node"><title>46</title>
<ellipse fill="none" stroke="white" cx="311.946" cy="-423" rx="27" ry="18"/>
<text text-anchor="middle" x="311.946" y="-419.3" font-family="Times New Roman,serif" font-size="14.00">1</text>
</g>
<!-- 17&#45;&#45;46 -->
<g id="edge11" class="edge"><title>17&#45;&#45;46</title>
<path fill="none" stroke="black" d="M311.946,-503.102C311.946,-497.128 311.946,-462.732 311.946,-441.31"/>
</g>
<!-- 6 -->
<g id="node11" class="node"><title>6</title>
<polygon fill="lightgrey" stroke="black" points="181.946,-359 145.946,-359 145.946,-323 181.946,-323 181.946,-359"/>
<text text-anchor="middle" x="163.946" y="-337.3" font-family="Times New Roman,serif" font-size="14.00">if</text>
</g>
<!-- 43&#45;&#45;6 -->
<g id="edge10" class="edge"><title>43&#45;&#45;6</title>
<path fill="none" stroke="black" d="M174.977,-405.034C172.618,-391.55 169.331,-372.767 166.959,-359.217"/>
</g>
<!-- 1 -->
<g id="node6" class="node"><title>1</title>
<polygon fill="#008b00" stroke="black" points="238.159,-77.0493 240.286,-77.1479 242.391,-77.2953 244.465,-77.4913 246.5,-77.7353 248.488,-78.0266 250.421,-78.3645 252.292,-78.7479 254.093,-79.1759 255.818,-79.6472 257.46,-80.1606 259.014,-80.7147 260.474,-81.308 261.837,-81.9388 263.097,-82.6054 264.252,-83.3059 265.298,-84.0385 266.234,-84.8012 267.058,-85.5918 267.768,-86.4082 268.364,-87.2481 268.847,-88.1093 269.216,-88.9894 269.474,-89.886 269.622,-90.7965 269.661,-91.7186 269.596,-92.6497 269.428,-93.5873 269.161,-94.5287 268.799,-95.4713 268.345,-96.4127 267.805,-97.3503 267.182,-98.2814 266.48,-99.2035 265.705,-100.114 264.861,-101.011 263.954,-101.891 262.986,-102.752 261.964,-103.592 260.892,-104.408 259.774,-105.199 258.614,-105.961 257.417,-106.694 256.187,-107.395 254.926,-108.061 253.64,-108.692 252.33,-109.285 251,-109.839 249.652,-110.353 248.29,-110.824 246.914,-111.252 245.528,-111.636 244.133,-111.973 242.731,-112.265 241.323,-112.509 239.911,-112.705 238.495,-112.852 237.076,-112.951 235.656,-113 234.236,-113 232.816,-112.951 231.398,-112.852 229.982,-112.705 228.569,-112.509 227.161,-112.265 225.759,-111.973 224.364,-111.636 222.978,-111.252 221.603,-110.824 220.241,-110.353 218.893,-109.839 217.563,-109.285 216.253,-108.692 214.966,-108.061 213.706,-107.395 212.475,-106.694 211.278,-105.961 210.119,-105.199 209.001,-104.408 207.929,-103.592 206.907,-102.752 205.939,-101.891 205.031,-101.011 204.188,-100.114 203.413,-99.2035 202.711,-98.2814 202.088,-97.3503 201.547,-96.4127 201.094,-95.4713 200.732,-94.5287 200.465,-93.5873 200.297,-92.6497 200.231,-91.7186 200.271,-90.7965 200.419,-89.886 200.676,-88.9894 201.046,-88.1093 201.529,-87.2481 202.125,-86.4082 202.835,-85.5918 203.659,-84.8012 204.594,-84.0385 205.641,-83.3059 206.796,-82.6054 208.056,-81.9388 209.418,-81.308 210.879,-80.7147 212.433,-80.1606 214.075,-79.6472 215.8,-79.1759 217.601,-78.7479 219.471,-78.3645 221.404,-78.0266 223.393,-77.7353 225.428,-77.4913 227.502,-77.2953 229.607,-77.1479 231.734,-77.0493 233.874,-77 236.019,-77 238.159,-77.0493"/>
<text text-anchor="middle" x="234.946" y="-91.3" font-family="Times New Roman,serif" font-size="14.00">var(n)</text>
</g>
<!-- 2 -->
<g id="node7" class="node"><title>2</title>
<ellipse fill="orange" stroke="black" cx="140.946" cy="-95" rx="40.8928" ry="18"/>
<text text-anchor="middle" x="140.946" y="-91.3" font-family="Times New Roman,serif" font-size="14.00">const(2)</text>
</g>
<!-- 3 -->
<g id="node8" class="node"><title>3</title>
<polygon fill="yellow" stroke="black" points="163.946,-200 130.351,-165.5 197.542,-165.5 163.946,-200"/>
<text text-anchor="middle" x="163.946" y="-173.3" font-family="Times New Roman,serif" font-size="14.00">le</text>
</g>
<!-- 3&#45;&#45;1 -->
<g id="edge3" class="edge"><title>3&#45;&#45;1</title>
<path fill="none" stroke="black" d="M173.522,-165.211C185.937,-151.222 207.654,-126.752 221.659,-110.971"/>
</g>
<!-- 3&#45;&#45;2 -->
<g id="edge4" class="edge"><title>3&#45;&#45;2</title>
<path fill="none" stroke="black" d="M160.844,-165.211C156.994,-151.819 150.383,-128.822 145.845,-113.038"/>
</g>
<!-- 4 -->
<g id="node9" class="node"><title>4</title>
<ellipse fill="orange" stroke="black" cx="40.9464" cy="-95" rx="40.8928" ry="18"/>
<text text-anchor="middle" x="40.9464" y="-91.3" font-family="Times New Roman,serif" font-size="14.00">const(1)</text>
</g>
<!-- 5 -->
<g id="node10" class="node"><title>5</title>
<polygon fill="grey" stroke="red" points="91.4956,-177 73.221,-195 36.6717,-195 18.3971,-177 36.6717,-159 73.221,-159 91.4956,-177"/>
<text text-anchor="middle" x="54.9464" y="-173.3" font-family="Times New Roman,serif" font-size="14.00">return</text>
</g>
<!-- 5&#45;&#45;4 -->
<g id="edge5" class="edge"><title>5&#45;&#45;4</title>
<path fill="none" stroke="black" d="M51.9086,-158.641C49.5442,-145.131 46.2806,-126.482 43.9301,-113.05"/>
</g>
<!-- 44 -->
<g id="node12" class="node"><title>44</title>
<polygon fill="none" stroke="black" points="168.343,-241.049 171.255,-241.148 174.136,-241.295 176.975,-241.491 179.761,-241.735 182.482,-242.027 185.128,-242.364 187.689,-242.748 190.154,-243.176 192.515,-243.647 194.763,-244.161 196.89,-244.715 198.889,-245.308 200.754,-245.939 202.479,-246.605 204.059,-247.306 205.492,-248.039 206.773,-248.801 207.9,-249.592 208.872,-250.408 209.688,-251.248 210.349,-252.109 210.855,-252.989 211.207,-253.886 211.41,-254.797 211.464,-255.719 211.374,-256.65 211.144,-257.587 210.779,-258.529 210.283,-259.471 209.663,-260.413 208.923,-261.35 208.07,-262.281 207.109,-263.203 206.049,-264.114 204.894,-265.011 203.651,-265.891 202.327,-266.752 200.928,-267.592 199.46,-268.408 197.93,-269.199 196.343,-269.961 194.704,-270.694 193.02,-271.395 191.295,-272.061 189.533,-272.692 187.741,-273.285 185.92,-273.839 184.075,-274.353 182.21,-274.824 180.328,-275.252 178.431,-275.636 176.522,-275.973 174.602,-276.265 172.675,-276.509 170.741,-276.705 168.803,-276.852 166.862,-276.951 164.918,-277 162.974,-277 161.031,-276.951 159.089,-276.852 157.151,-276.705 155.218,-276.509 153.29,-276.265 151.371,-275.973 149.462,-275.636 147.565,-275.252 145.682,-274.824 143.817,-274.353 141.973,-273.839 140.152,-273.285 138.359,-272.692 136.598,-272.061 134.873,-271.395 133.189,-270.694 131.55,-269.961 129.963,-269.199 128.432,-268.408 126.965,-267.592 125.566,-266.752 124.242,-265.891 122.999,-265.011 121.844,-264.114 120.783,-263.203 119.823,-262.281 118.97,-261.35 118.23,-260.413 117.609,-259.471 117.114,-258.529 116.748,-257.587 116.519,-256.65 116.429,-255.719 116.483,-254.797 116.685,-253.886 117.038,-252.989 117.544,-252.109 118.205,-251.248 119.021,-250.408 119.993,-249.592 121.12,-248.801 122.401,-248.039 123.833,-247.306 125.414,-246.605 127.139,-245.939 129.004,-245.308 131.003,-244.715 133.13,-244.161 135.378,-243.647 137.739,-243.176 140.204,-242.748 142.764,-242.364 145.41,-242.027 148.132,-241.735 150.918,-241.491 153.757,-241.295 156.638,-241.148 159.549,-241.049 162.479,-241 165.414,-241 168.343,-241.049"/>
<text text-anchor="middle" x="163.946" y="-255.3" font-family="Times New Roman,serif" font-size="14.00">condition</text>
</g>
<!-- 6&#45;&#45;44 -->
<g id="edge6" class="edge"><title>6&#45;&#45;44</title>
<path fill="none" stroke="black" stroke-dasharray="1,5" d="M163.946,-322.641C163.946,-309.131 163.946,-290.482 163.946,-277.05"/>
</g>
<!-- 45 -->
<g id="node13" class="node"><title>45</title>
<polygon fill="none" stroke="black" points="71.6289,-241.049 73.405,-241.148 75.1627,-241.295 76.8948,-241.491 78.5944,-241.735 80.2546,-242.027 81.8689,-242.364 83.431,-242.748 84.9349,-243.176 86.3751,-243.647 87.7464,-244.161 89.044,-244.715 90.2636,-245.308 91.4013,-245.939 92.4538,-246.605 93.4181,-247.306 94.2919,-248.039 95.0733,-248.801 95.7609,-249.592 96.3539,-250.408 96.8519,-251.248 97.2549,-252.109 97.5636,-252.989 97.7788,-253.886 97.9022,-254.797 97.9353,-255.719 97.8805,-256.65 97.7403,-257.587 97.5174,-258.529 97.215,-259.471 96.8364,-260.413 96.385,-261.35 95.8645,-262.281 95.2788,-263.203 94.6317,-264.114 93.927,-265.011 93.1689,-265.891 92.3612,-266.752 91.5077,-267.592 90.6123,-268.408 89.6786,-269.199 88.7103,-269.961 87.7108,-270.694 86.6832,-271.395 85.6307,-272.061 84.5563,-272.692 83.4624,-273.285 82.3517,-273.839 81.2265,-274.353 80.0887,-274.824 78.9403,-275.252 77.7829,-275.636 76.6181,-275.973 75.4472,-276.265 74.2714,-276.509 73.0918,-276.705 71.9094,-276.852 70.725,-276.951 69.5394,-277 68.3534,-277 67.1678,-276.951 65.9833,-276.852 64.8009,-276.705 63.6213,-276.509 62.4455,-276.265 61.2746,-275.973 60.1098,-275.636 58.9525,-275.252 57.804,-274.824 56.6663,-274.353 55.541,-273.839 54.4303,-273.285 53.3365,-272.692 52.262,-272.061 51.2095,-271.395 50.182,-270.694 49.1824,-269.961 48.2141,-269.199 47.2805,-268.408 46.3851,-267.592 45.5316,-266.752 44.7238,-265.891 43.9657,-265.011 43.2611,-264.114 42.614,-263.203 42.0282,-262.281 41.5078,-261.35 41.0564,-260.413 40.6777,-259.471 40.3753,-258.529 40.1524,-257.587 40.0122,-256.65 39.9574,-255.719 39.9906,-254.797 40.1139,-253.886 40.3292,-252.989 40.6378,-252.109 41.0409,-251.248 41.5388,-250.408 42.1318,-249.592 42.8194,-248.801 43.6009,-248.039 44.4747,-247.306 45.439,-246.605 46.4914,-245.939 47.6291,-245.308 48.8487,-244.715 50.1463,-244.161 51.5176,-243.647 52.9578,-243.176 54.4617,-242.748 56.0238,-242.364 57.6381,-242.027 59.2983,-241.735 60.9979,-241.491 62.7301,-241.295 64.4878,-241.148 66.2638,-241.049 68.051,-241 69.8418,-241 71.6289,-241.049"/>
<text text-anchor="middle" x="68.9464" y="-255.3" font-family="Times New Roman,serif" font-size="14.00">then</text>
</g>
<!-- 6&#45;&#45;45 -->
<g id="edge7" class="edge"><title>6&#45;&#45;45</title>
<path fill="none" stroke="black" stroke-dasharray="1,5" d="M145.629,-324.575C127.837,-309.592 101.124,-287.097 84.3815,-272.998"/>
</g>
<!-- 44&#45;&#45;3 -->
<g id="edge8" class="edge"><title>44&#45;&#45;3</title>
<path fill="none" stroke="black" d="M163.946,-240.641C163.946,-228.785 163.946,-212.972 163.946,-200.2"/>
</g>
<!-- 45&#45;&#45;5 -->
<g id="edge9" class="edge"><title>45&#45;&#45;5</title>
<path fill="none" stroke="black" d="M65.9773,-241.034C63.6175,-227.55 60.3306,-208.767 57.9594,-195.217"/>
</g>
<!-- 16 -->
<g id="node24" class="node"><title>16</title>
<polygon fill="grey" stroke="red" points="348.496,-341 330.221,-359 293.672,-359 275.397,-341 293.672,-323 330.221,-323 348.496,-341"/>
<text text-anchor="middle" x="311.946" y="-337.3" font-family="Times New Roman,serif" font-size="14.00">return</text>
</g>
<!-- 46&#45;&#45;16 -->
<g id="edge21" class="edge"><title>46&#45;&#45;16</title>
<path fill="none" stroke="black" d="M311.946,-404.641C311.946,-391.131 311.946,-372.482 311.946,-359.05"/>
</g>
<!-- 10 -->
<g id="node15" class="node"><title>10</title>
<polygon fill="lightblue" stroke="black" points="377.458,-169.544 377.458,-184.456 353.141,-195 318.751,-195 294.434,-184.456 294.434,-169.544 318.751,-159 353.141,-159 377.458,-169.544"/>
<text text-anchor="middle" x="335.946" y="-173.3" font-family="Times New Roman,serif" font-size="14.00">call(fib)</text>
</g>
<!-- 9 -->
<g id="node18" class="node"><title>9</title>
<polygon fill="yellow" stroke="black" points="335.946,-118 287.755,-83.5 384.138,-83.5 335.946,-118"/>
<text text-anchor="middle" x="335.946" y="-91.3" font-family="Times New Roman,serif" font-size="14.00">sub</text>
</g>
<!-- 10&#45;&#45;9 -->
<g id="edge14" class="edge"><title>10&#45;&#45;9</title>
<path fill="none" stroke="black" d="M335.946,-158.641C335.946,-146.785 335.946,-130.972 335.946,-118.2"/>
</g>
<!-- 7 -->
<g id="node16" class="node"><title>7</title>
<polygon fill="#008b00" stroke="black" points="250.159,-0.0493367 252.286,-0.147875 254.391,-0.295345 256.465,-0.491342 258.5,-0.735329 260.488,-1.02664 262.421,-1.36447 264.292,-1.7479 266.093,-2.17587 267.818,-2.64722 269.46,-3.16064 271.014,-3.71474 272.474,-4.308 273.837,-4.93879 275.097,-5.60537 276.252,-6.30593 277.298,-7.03854 278.234,-7.80119 279.058,-8.5918 279.768,-9.4082 280.364,-10.2481 280.847,-11.1093 281.216,-11.9894 281.474,-12.886 281.622,-13.7965 281.661,-14.7186 281.596,-15.6497 281.428,-16.5873 281.161,-17.5287 280.799,-18.4713 280.345,-19.4127 279.805,-20.3503 279.182,-21.2814 278.48,-22.2035 277.705,-23.114 276.861,-24.0106 275.954,-24.8907 274.986,-25.7519 273.964,-26.5918 272.892,-27.4082 271.774,-28.1988 270.614,-28.9615 269.417,-29.6941 268.187,-30.3946 266.926,-31.0612 265.64,-31.692 264.33,-32.2853 263,-32.8394 261.652,-33.3528 260.29,-33.8241 258.914,-34.2521 257.528,-34.6355 256.133,-34.9734 254.731,-35.2647 253.323,-35.5087 251.911,-35.7047 250.495,-35.8521 249.076,-35.9507 247.656,-36 246.236,-36 244.816,-35.9507 243.398,-35.8521 241.982,-35.7047 240.569,-35.5087 239.161,-35.2647 237.759,-34.9734 236.364,-34.6355 234.978,-34.2521 233.603,-33.8241 232.241,-33.3528 230.893,-32.8394 229.563,-32.2853 228.253,-31.692 226.966,-31.0612 225.706,-30.3946 224.475,-29.6941 223.278,-28.9615 222.119,-28.1988 221.001,-27.4082 219.929,-26.5918 218.907,-25.7519 217.939,-24.8907 217.031,-24.0106 216.188,-23.114 215.413,-22.2035 214.711,-21.2814 214.088,-20.3503 213.547,-19.4127 213.094,-18.4713 212.732,-17.5287 212.465,-16.5873 212.297,-15.6497 212.231,-14.7186 212.271,-13.7965 212.419,-12.886 212.676,-11.9894 213.046,-11.1093 213.529,-10.2481 214.125,-9.4082 214.835,-8.5918 215.659,-7.80119 216.594,-7.03854 217.641,-6.30593 218.796,-5.60537 220.056,-4.93879 221.418,-4.308 222.879,-3.71474 224.433,-3.16064 226.075,-2.64722 227.8,-2.17587 229.601,-1.7479 231.471,-1.36447 233.404,-1.02664 235.393,-0.735329 237.428,-0.491342 239.502,-0.295345 241.607,-0.147875 243.734,-0.0493367 245.874,-1.77636e-013 248.019,-1.84741e-013 250.159,-0.0493367"/>
<text text-anchor="middle" x="246.946" y="-14.3" font-family="Times New Roman,serif" font-size="14.00">var(n)</text>
</g>
<!-- 8 -->
<g id="node17" class="node"><title>8</title>
<ellipse fill="orange" stroke="black" cx="340.946" cy="-18" rx="40.8928" ry="18"/>
<text text-anchor="middle" x="340.946" y="-14.3" font-family="Times New Roman,serif" font-size="14.00">const(1)</text>
</g>
<!-- 9&#45;&#45;7 -->
<g id="edge12" class="edge"><title>9&#45;&#45;7</title>
<path fill="none" stroke="black" d="M323.195,-83.2543C307.43,-69.9689 280.571,-47.3355 263.303,-32.7834"/>
</g>
<!-- 9&#45;&#45;8 -->
<g id="edge13" class="edge"><title>9&#45;&#45;8</title>
<path fill="none" stroke="black" d="M336.663,-83.2543C337.484,-70.941 338.84,-50.5976 339.806,-36.1008"/>
</g>
<!-- 14 -->
<g id="node19" class="node"><title>14</title>
<polygon fill="lightblue" stroke="black" points="485.458,-169.544 485.458,-184.456 461.141,-195 426.751,-195 402.434,-184.456 402.434,-169.544 426.751,-159 461.141,-159 485.458,-169.544"/>
<text text-anchor="middle" x="443.946" y="-173.3" font-family="Times New Roman,serif" font-size="14.00">call(fib)</text>
</g>
<!-- 13 -->
<g id="node22" class="node"><title>13</title>
<polygon fill="yellow" stroke="black" points="449.946,-118 401.755,-83.5 498.138,-83.5 449.946,-118"/>
<text text-anchor="middle" x="449.946" y="-91.3" font-family="Times New Roman,serif" font-size="14.00">sub</text>
</g>
<!-- 14&#45;&#45;13 -->
<g id="edge17" class="edge"><title>14&#45;&#45;13</title>
<path fill="none" stroke="black" d="M445.248,-158.641C446.165,-146.417 447.397,-129.987 448.37,-117.021"/>
</g>
<!-- 11 -->
<g id="node20" class="node"><title>11</title>
<polygon fill="#008b00" stroke="black" points="443.159,-0.0493367 445.286,-0.147875 447.391,-0.295345 449.465,-0.491342 451.5,-0.735329 453.488,-1.02664 455.421,-1.36447 457.292,-1.7479 459.093,-2.17587 460.818,-2.64722 462.46,-3.16064 464.014,-3.71474 465.474,-4.308 466.837,-4.93879 468.097,-5.60537 469.252,-6.30593 470.298,-7.03854 471.234,-7.80119 472.058,-8.5918 472.768,-9.4082 473.364,-10.2481 473.847,-11.1093 474.216,-11.9894 474.474,-12.886 474.622,-13.7965 474.661,-14.7186 474.596,-15.6497 474.428,-16.5873 474.161,-17.5287 473.799,-18.4713 473.345,-19.4127 472.805,-20.3503 472.182,-21.2814 471.48,-22.2035 470.705,-23.114 469.861,-24.0106 468.954,-24.8907 467.986,-25.7519 466.964,-26.5918 465.892,-27.4082 464.774,-28.1988 463.614,-28.9615 462.417,-29.6941 461.187,-30.3946 459.926,-31.0612 458.64,-31.692 457.33,-32.2853 456,-32.8394 454.652,-33.3528 453.29,-33.8241 451.914,-34.2521 450.528,-34.6355 449.133,-34.9734 447.731,-35.2647 446.323,-35.5087 444.911,-35.7047 443.495,-35.8521 442.076,-35.9507 440.656,-36 439.236,-36 437.816,-35.9507 436.398,-35.8521 434.982,-35.7047 433.569,-35.5087 432.161,-35.2647 430.759,-34.9734 429.364,-34.6355 427.978,-34.2521 426.603,-33.8241 425.241,-33.3528 423.893,-32.8394 422.563,-32.2853 421.253,-31.692 419.966,-31.0612 418.706,-30.3946 417.475,-29.6941 416.278,-28.9615 415.119,-28.1988 414.001,-27.4082 412.929,-26.5918 411.907,-25.7519 410.939,-24.8907 410.031,-24.0106 409.188,-23.114 408.413,-22.2035 407.711,-21.2814 407.088,-20.3503 406.547,-19.4127 406.094,-18.4713 405.732,-17.5287 405.465,-16.5873 405.297,-15.6497 405.231,-14.7186 405.271,-13.7965 405.419,-12.886 405.676,-11.9894 406.046,-11.1093 406.529,-10.2481 407.125,-9.4082 407.835,-8.5918 408.659,-7.80119 409.594,-7.03854 410.641,-6.30593 411.796,-5.60537 413.056,-4.93879 414.418,-4.308 415.879,-3.71474 417.433,-3.16064 419.075,-2.64722 420.8,-2.17587 422.601,-1.7479 424.471,-1.36447 426.404,-1.02664 428.393,-0.735329 430.428,-0.491342 432.502,-0.295345 434.607,-0.147875 436.734,-0.0493367 438.874,-1.77636e-013 441.019,-1.84741e-013 443.159,-0.0493367"/>
<text text-anchor="middle" x="439.946" y="-14.3" font-family="Times New Roman,serif" font-size="14.00">var(n)</text>
</g>
<!-- 12 -->
<g id="node21" class="node"><title>12</title>
<ellipse fill="orange" stroke="black" cx="533.946" cy="-18" rx="40.8928" ry="18"/>
<text text-anchor="middle" x="533.946" y="-14.3" font-family="Times New Roman,serif" font-size="14.00">const(2)</text>
</g>
<!-- 13&#45;&#45;11 -->
<g id="edge15" class="edge"><title>13&#45;&#45;11</title>
<path fill="none" stroke="black" d="M448.514,-83.2543C446.872,-70.941 444.159,-50.5976 442.226,-36.1008"/>
</g>
<!-- 13&#45;&#45;12 -->
<g id="edge16" class="edge"><title>13&#45;&#45;12</title>
<path fill="none" stroke="black" d="M461.982,-83.2543C476.317,-70.455 500.37,-48.979 516.685,-34.4122"/>
</g>
<!-- 15 -->
<g id="node23" class="node"><title>15</title>
<polygon fill="yellow" stroke="black" points="335.946,-282 283.956,-247.5 387.937,-247.5 335.946,-282"/>
<text text-anchor="middle" x="335.946" y="-255.3" font-family="Times New Roman,serif" font-size="14.00">sum</text>
</g>
<!-- 15&#45;&#45;10 -->
<g id="edge18" class="edge"><title>15&#45;&#45;10</title>
<path fill="none" stroke="black" d="M335.946,-247.211C335.946,-233.819 335.946,-210.822 335.946,-195.038"/>
</g>
<!-- 15&#45;&#45;14 -->
<g id="edge19" class="edge"><title>15&#45;&#45;14</title>
<path fill="none" stroke="black" d="M350.512,-247.211C369.167,-233.392 401.627,-209.347 422.951,-193.552"/>
</g>
<!-- 16&#45;&#45;15 -->
<g id="edge20" class="edge"><title>16&#45;&#45;15</title>
<path fill="none" stroke="black" d="M317.154,-322.641C321.069,-309.59 326.423,-291.744 330.415,-278.438"/>
</g>
<!-- 20 -->
<g id="node27" class="node"><title>20</title>
<polygon fill="#9ac0cd" stroke="#00008b" points="910.446,-600 827.446,-600 827.446,-564 910.446,-564 910.446,-600"/>
<text text-anchor="middle" x="868.946" y="-578.3" font-family="Times New Roman,serif" font-size="14.00">assign[sum]</text>
</g>
<!-- 47&#45;&#45;20 -->
<g id="edge26" class="edge"><title>47&#45;&#45;20</title>
<path fill="none" stroke="black" d="M845.293,-636.411C850.091,-625.576 856.347,-611.45 861.22,-600.447"/>
</g>
<!-- 19 -->
<g id="node26" class="node"><title>19</title>
<ellipse fill="orange" stroke="black" cx="869.946" cy="-505" rx="40.8928" ry="18"/>
<text text-anchor="middle" x="869.946" y="-501.3" font-family="Times New Roman,serif" font-size="14.00">const(0)</text>
</g>
<!-- 20&#45;&#45;19 -->
<g id="edge25" class="edge"><title>20&#45;&#45;19</title>
<path fill="none" stroke="black" d="M869.173,-563.981C869.336,-551.794 869.554,-535.442 869.717,-523.211"/>
</g>
<!-- 35 -->
<g id="node43" class="node"><title>35</title>
<polygon fill="lightgrey" stroke="black" points="707.946,-600 671.946,-600 671.946,-564 707.946,-564 707.946,-600"/>
<text text-anchor="middle" x="689.946" y="-578.3" font-family="Times New Roman,serif" font-size="14.00">for</text>
</g>
<!-- 48&#45;&#45;35 -->
<g id="edge46" class="edge"><title>48&#45;&#45;35</title>
<path fill="none" stroke="black" d="M707.379,-636.055C703.816,-625.211 699.206,-611.183 695.623,-600.275"/>
</g>
<!-- 21 -->
<g id="node29" class="node"><title>21</title>
<ellipse fill="orange" stroke="black" cx="407.946" cy="-341" rx="40.8928" ry="18"/>
<text text-anchor="middle" x="407.946" y="-337.3" font-family="Times New Roman,serif" font-size="14.00">const(0)</text>
</g>
<!-- 22 -->
<g id="node30" class="node"><title>22</title>
<polygon fill="#9ac0cd" stroke="#00008b" points="472.446,-441 409.446,-441 409.446,-405 472.446,-405 472.446,-441"/>
<text text-anchor="middle" x="440.946" y="-419.3" font-family="Times New Roman,serif" font-size="14.00">assign[i]</text>
</g>
<!-- 22&#45;&#45;21 -->
<g id="edge28" class="edge"><title>22&#45;&#45;21</title>
<path fill="none" stroke="black" d="M433.786,-404.641C428.175,-391.039 420.415,-372.228 414.867,-358.777"/>
</g>
<!-- 23 -->
<g id="node31" class="node"><title>23</title>
<polygon fill="#008b00" stroke="black" points="609.878,-323.049 611.819,-323.148 613.739,-323.295 615.632,-323.491 617.489,-323.735 619.304,-324.027 621.068,-324.364 622.775,-324.748 624.418,-325.176 625.992,-325.647 627.491,-326.161 628.909,-326.715 630.241,-327.308 631.485,-327.939 632.635,-328.605 633.688,-329.306 634.643,-330.039 635.497,-330.801 636.249,-331.592 636.897,-332.408 637.441,-333.248 637.881,-334.109 638.218,-334.989 638.454,-335.886 638.588,-336.797 638.625,-337.719 638.565,-338.65 638.412,-339.587 638.168,-340.529 637.838,-341.471 637.424,-342.413 636.931,-343.35 636.362,-344.281 635.722,-345.203 635.015,-346.114 634.245,-347.011 633.416,-347.891 632.533,-348.752 631.601,-349.592 630.622,-350.408 629.602,-351.199 628.544,-351.961 627.452,-352.694 626.329,-353.395 625.179,-354.061 624.004,-354.692 622.809,-355.285 621.595,-355.839 620.366,-356.353 619.122,-356.824 617.867,-357.252 616.603,-357.636 615.33,-357.973 614.05,-358.265 612.765,-358.509 611.476,-358.705 610.184,-358.852 608.89,-358.951 607.594,-359 606.298,-359 605.003,-358.951 603.708,-358.852 602.416,-358.705 601.127,-358.509 599.842,-358.265 598.563,-357.973 597.29,-357.636 596.025,-357.252 594.77,-356.824 593.527,-356.353 592.297,-355.839 591.084,-355.285 589.888,-354.692 588.714,-354.061 587.564,-353.395 586.441,-352.694 585.349,-351.961 584.291,-351.199 583.27,-350.408 582.292,-349.592 581.359,-348.752 580.477,-347.891 579.648,-347.011 578.878,-346.114 578.171,-345.203 577.531,-344.281 576.962,-343.35 576.469,-342.413 576.055,-341.471 575.725,-340.529 575.481,-339.587 575.328,-338.65 575.268,-337.719 575.304,-336.797 575.439,-335.886 575.674,-334.989 576.012,-334.109 576.452,-333.248 576.996,-332.408 577.644,-331.592 578.396,-330.801 579.249,-330.039 580.204,-329.306 581.258,-328.605 582.408,-327.939 583.651,-327.308 584.984,-326.715 586.402,-326.161 587.901,-325.647 589.474,-325.176 591.118,-324.748 592.825,-324.364 594.589,-324.027 596.403,-323.735 598.261,-323.491 600.153,-323.295 602.074,-323.148 604.015,-323.049 605.968,-323 607.925,-323 609.878,-323.049"/>
<text text-anchor="middle" x="606.946" y="-337.3" font-family="Times New Roman,serif" font-size="14.00">var(i)</text>
</g>
<!-- 24 -->
<g id="node32" class="node"><title>24</title>
<ellipse fill="orange" stroke="black" cx="511.946" cy="-341" rx="45.4919" ry="18"/>
<text text-anchor="middle" x="511.946" y="-337.3" font-family="Times New Roman,serif" font-size="14.00">const(10)</text>
</g>
<!-- 25 -->
<g id="node33" class="node"><title>25</title>
<polygon fill="yellow" stroke="black" points="584.946,-446 555.151,-411.5 614.741,-411.5 584.946,-446"/>
<text text-anchor="middle" x="584.946" y="-419.3" font-family="Times New Roman,serif" font-size="14.00">lt</text>
</g>
<!-- 25&#45;&#45;23 -->
<g id="edge29" class="edge"><title>25&#45;&#45;23</title>
<path fill="none" stroke="black" d="M587.913,-411.211C591.62,-397.734 598.001,-374.528 602.344,-358.737"/>
</g>
<!-- 25&#45;&#45;24 -->
<g id="edge30" class="edge"><title>25&#45;&#45;24</title>
<path fill="none" stroke="black" d="M575.101,-411.211C562.648,-397.563 541.091,-373.939 526.675,-358.141"/>
</g>
<!-- 26 -->
<g id="node34" class="node"><title>26</title>
<polygon fill="#008b00" stroke="black" points="624.878,-241.049 626.819,-241.148 628.739,-241.295 630.632,-241.491 632.489,-241.735 634.304,-242.027 636.068,-242.364 637.775,-242.748 639.418,-243.176 640.992,-243.647 642.491,-244.161 643.909,-244.715 645.241,-245.308 646.485,-245.939 647.635,-246.605 648.688,-247.306 649.643,-248.039 650.497,-248.801 651.249,-249.592 651.897,-250.408 652.441,-251.248 652.881,-252.109 653.218,-252.989 653.454,-253.886 653.588,-254.797 653.625,-255.719 653.565,-256.65 653.412,-257.587 653.168,-258.529 652.838,-259.471 652.424,-260.413 651.931,-261.35 651.362,-262.281 650.722,-263.203 650.015,-264.114 649.245,-265.011 648.416,-265.891 647.533,-266.752 646.601,-267.592 645.622,-268.408 644.602,-269.199 643.544,-269.961 642.452,-270.694 641.329,-271.395 640.179,-272.061 639.004,-272.692 637.809,-273.285 636.595,-273.839 635.366,-274.353 634.122,-274.824 632.867,-275.252 631.603,-275.636 630.33,-275.973 629.05,-276.265 627.765,-276.509 626.476,-276.705 625.184,-276.852 623.89,-276.951 622.594,-277 621.298,-277 620.003,-276.951 618.708,-276.852 617.416,-276.705 616.127,-276.509 614.842,-276.265 613.563,-275.973 612.29,-275.636 611.025,-275.252 609.77,-274.824 608.527,-274.353 607.297,-273.839 606.084,-273.285 604.888,-272.692 603.714,-272.061 602.564,-271.395 601.441,-270.694 600.349,-269.961 599.291,-269.199 598.27,-268.408 597.292,-267.592 596.359,-266.752 595.477,-265.891 594.648,-265.011 593.878,-264.114 593.171,-263.203 592.531,-262.281 591.962,-261.35 591.469,-260.413 591.055,-259.471 590.725,-258.529 590.481,-257.587 590.328,-256.65 590.268,-255.719 590.304,-254.797 590.439,-253.886 590.674,-252.989 591.012,-252.109 591.452,-251.248 591.996,-250.408 592.644,-249.592 593.396,-248.801 594.249,-248.039 595.204,-247.306 596.258,-246.605 597.408,-245.939 598.651,-245.308 599.984,-244.715 601.402,-244.161 602.901,-243.647 604.474,-243.176 606.118,-242.748 607.825,-242.364 609.589,-242.027 611.403,-241.735 613.261,-241.491 615.153,-241.295 617.074,-241.148 619.015,-241.049 620.968,-241 622.925,-241 624.878,-241.049"/>
<text text-anchor="middle" x="621.946" y="-255.3" font-family="Times New Roman,serif" font-size="14.00">var(i)</text>
</g>
<!-- 27 -->
<g id="node35" class="node"><title>27</title>
<ellipse fill="orange" stroke="black" cx="712.946" cy="-259" rx="40.8928" ry="18"/>
<text text-anchor="middle" x="712.946" y="-255.3" font-family="Times New Roman,serif" font-size="14.00">const(1)</text>
</g>
<!-- 28 -->
<g id="node36" class="node"><title>28</title>
<polygon fill="yellow" stroke="black" points="708.946,-364 656.956,-329.5 760.937,-329.5 708.946,-364"/>
<text text-anchor="middle" x="708.946" y="-337.3" font-family="Times New Roman,serif" font-size="14.00">sum</text>
</g>
<!-- 28&#45;&#45;26 -->
<g id="edge31" class="edge"><title>28&#45;&#45;26</title>
<path fill="none" stroke="black" d="M697.213,-329.211C681.629,-314.881 654.084,-289.552 636.989,-273.832"/>
</g>
<!-- 28&#45;&#45;27 -->
<g id="edge32" class="edge"><title>28&#45;&#45;27</title>
<path fill="none" stroke="black" d="M709.486,-329.211C710.155,-315.819 711.305,-292.822 712.094,-277.038"/>
</g>
<!-- 29 -->
<g id="node37" class="node"><title>29</title>
<polygon fill="#9ac0cd" stroke="#00008b" points="730.446,-441 667.446,-441 667.446,-405 730.446,-405 730.446,-441"/>
<text text-anchor="middle" x="698.946" y="-419.3" font-family="Times New Roman,serif" font-size="14.00">assign[i]</text>
</g>
<!-- 29&#45;&#45;28 -->
<g id="edge33" class="edge"><title>29&#45;&#45;28</title>
<path fill="none" stroke="black" d="M701.116,-404.641C702.667,-392.234 704.76,-375.492 706.392,-362.438"/>
</g>
<!-- 30 -->
<g id="node38" class="node"><title>30</title>
<polygon fill="#008b00" stroke="black" points="830.19,-241.049 833,-241.148 835.781,-241.295 838.522,-241.491 841.211,-241.735 843.837,-242.027 846.391,-242.364 848.863,-242.748 851.242,-243.176 853.521,-243.647 855.69,-244.161 857.743,-244.715 859.673,-245.308 861.473,-245.939 863.138,-246.605 864.664,-247.306 866.046,-248.039 867.282,-248.801 868.37,-249.592 869.309,-250.408 870.096,-251.248 870.734,-252.109 871.222,-252.989 871.563,-253.886 871.758,-254.797 871.811,-255.719 871.724,-256.65 871.502,-257.587 871.149,-258.529 870.671,-259.471 870.072,-260.413 869.358,-261.35 868.534,-262.281 867.608,-263.203 866.584,-264.114 865.469,-265.011 864.269,-265.891 862.992,-266.752 861.641,-267.592 860.225,-268.408 858.747,-269.199 857.215,-269.961 855.634,-270.694 854.008,-271.395 852.343,-272.061 850.643,-272.692 848.913,-273.285 847.155,-273.839 845.375,-274.353 843.575,-274.824 841.758,-275.252 839.927,-275.636 838.084,-275.973 836.232,-276.265 834.371,-276.509 832.505,-276.705 830.634,-276.852 828.76,-276.951 826.885,-277 825.008,-277 823.132,-276.951 821.258,-276.852 819.388,-276.705 817.521,-276.509 815.661,-276.265 813.809,-275.973 811.966,-275.636 810.135,-275.252 808.318,-274.824 806.518,-274.353 804.737,-273.839 802.98,-273.285 801.25,-272.692 799.55,-272.061 797.884,-271.395 796.259,-270.694 794.677,-269.961 793.145,-269.199 791.668,-268.408 790.252,-267.592 788.901,-266.752 787.623,-265.891 786.424,-265.011 785.309,-264.114 784.285,-263.203 783.358,-262.281 782.535,-261.35 781.821,-260.413 781.222,-259.471 780.743,-258.529 780.391,-257.587 780.169,-256.65 780.082,-255.719 780.135,-254.797 780.33,-253.886 780.67,-252.989 781.159,-252.109 781.796,-251.248 782.584,-250.408 783.522,-249.592 784.61,-248.801 785.847,-248.039 787.229,-247.306 788.755,-246.605 790.42,-245.939 792.22,-245.308 794.149,-244.715 796.202,-244.161 798.372,-243.647 800.65,-243.176 803.03,-242.748 805.501,-242.364 808.055,-242.027 810.682,-241.735 813.371,-241.491 816.111,-241.295 818.892,-241.148 821.702,-241.049 824.53,-241 827.363,-241 830.19,-241.049"/>
<text text-anchor="middle" x="825.946" y="-255.3" font-family="Times New Roman,serif" font-size="14.00">var(sum)</text>
</g>
<!-- 32 -->
<g id="node39" class="node"><title>32</title>
<polygon fill="lightblue" stroke="black" points="972.458,-251.544 972.458,-266.456 948.141,-277 913.751,-277 889.434,-266.456 889.434,-251.544 913.751,-241 948.141,-241 972.458,-251.544"/>
<text text-anchor="middle" x="930.946" y="-255.3" font-family="Times New Roman,serif" font-size="14.00">call(fib)</text>
</g>
<!-- 31 -->
<g id="node40" class="node"><title>31</title>
<polygon fill="#008b00" stroke="black" points="933.878,-159.049 935.819,-159.148 937.739,-159.295 939.632,-159.491 941.489,-159.735 943.304,-160.027 945.068,-160.364 946.775,-160.748 948.418,-161.176 949.992,-161.647 951.491,-162.161 952.909,-162.715 954.241,-163.308 955.485,-163.939 956.635,-164.605 957.688,-165.306 958.643,-166.039 959.497,-166.801 960.249,-167.592 960.897,-168.408 961.441,-169.248 961.881,-170.109 962.218,-170.989 962.454,-171.886 962.588,-172.797 962.625,-173.719 962.565,-174.65 962.412,-175.587 962.168,-176.529 961.838,-177.471 961.424,-178.413 960.931,-179.35 960.362,-180.281 959.722,-181.203 959.015,-182.114 958.245,-183.011 957.416,-183.891 956.533,-184.752 955.601,-185.592 954.622,-186.408 953.602,-187.199 952.544,-187.961 951.452,-188.694 950.329,-189.395 949.179,-190.061 948.004,-190.692 946.809,-191.285 945.595,-191.839 944.366,-192.353 943.122,-192.824 941.867,-193.252 940.603,-193.636 939.33,-193.973 938.05,-194.265 936.765,-194.509 935.476,-194.705 934.184,-194.852 932.89,-194.951 931.594,-195 930.298,-195 929.003,-194.951 927.708,-194.852 926.416,-194.705 925.127,-194.509 923.842,-194.265 922.563,-193.973 921.29,-193.636 920.025,-193.252 918.77,-192.824 917.527,-192.353 916.297,-191.839 915.084,-191.285 913.888,-190.692 912.714,-190.061 911.564,-189.395 910.441,-188.694 909.349,-187.961 908.291,-187.199 907.27,-186.408 906.292,-185.592 905.359,-184.752 904.477,-183.891 903.648,-183.011 902.878,-182.114 902.171,-181.203 901.531,-180.281 900.962,-179.35 900.469,-178.413 900.055,-177.471 899.725,-176.529 899.481,-175.587 899.328,-174.65 899.268,-173.719 899.304,-172.797 899.439,-171.886 899.674,-170.989 900.012,-170.109 900.452,-169.248 900.996,-168.408 901.644,-167.592 902.396,-166.801 903.249,-166.039 904.204,-165.306 905.258,-164.605 906.408,-163.939 907.651,-163.308 908.984,-162.715 910.402,-162.161 911.901,-161.647 913.474,-161.176 915.118,-160.748 916.825,-160.364 918.589,-160.027 920.403,-159.735 922.261,-159.491 924.153,-159.295 926.074,-159.148 928.015,-159.049 929.968,-159 931.925,-159 933.878,-159.049"/>
<text text-anchor="middle" x="930.946" y="-173.3" font-family="Times New Roman,serif" font-size="14.00">var(i)</text>
</g>
<!-- 32&#45;&#45;31 -->
<g id="edge34" class="edge"><title>32&#45;&#45;31</title>
<path fill="none" stroke="black" d="M930.946,-240.641C930.946,-227.131 930.946,-208.482 930.946,-195.05"/>
</g>
<!-- 33 -->
<g id="node41" class="node"><title>33</title>
<polygon fill="yellow" stroke="black" points="830.946,-364 778.956,-329.5 882.937,-329.5 830.946,-364"/>
<text text-anchor="middle" x="830.946" y="-337.3" font-family="Times New Roman,serif" font-size="14.00">sum</text>
</g>
<!-- 33&#45;&#45;30 -->
<g id="edge35" class="edge"><title>33&#45;&#45;30</title>
<path fill="none" stroke="black" d="M830.272,-329.211C829.435,-315.819 827.998,-292.822 827.011,-277.038"/>
</g>
<!-- 33&#45;&#45;32 -->
<g id="edge36" class="edge"><title>33&#45;&#45;32</title>
<path fill="none" stroke="black" d="M844.433,-329.211C861.493,-315.563 891.022,-291.939 910.77,-276.141"/>
</g>
<!-- 34 -->
<g id="node42" class="node"><title>34</title>
<polygon fill="#9ac0cd" stroke="#00008b" points="856.446,-441 773.446,-441 773.446,-405 856.446,-405 856.446,-441"/>
<text text-anchor="middle" x="814.946" y="-419.3" font-family="Times New Roman,serif" font-size="14.00">assign[sum]</text>
</g>
<!-- 34&#45;&#45;33 -->
<g id="edge37" class="edge"><title>34&#45;&#45;33</title>
<path fill="none" stroke="black" d="M818.418,-404.641C820.955,-391.958 824.397,-374.746 827.032,-361.573"/>
</g>
<!-- 49 -->
<g id="node44" class="node"><title>49</title>
<polygon fill="none" stroke="black" points="478.109,-487.049 480.864,-487.148 483.592,-487.295 486.279,-487.491 488.916,-487.735 491.492,-488.027 493.997,-488.364 496.421,-488.748 498.754,-489.176 500.989,-489.647 503.116,-490.161 505.13,-490.715 507.022,-491.308 508.787,-491.939 510.42,-492.605 511.917,-493.306 513.272,-494.039 514.485,-494.801 515.552,-495.592 516.472,-496.408 517.244,-497.248 517.87,-498.109 518.349,-498.989 518.683,-499.886 518.874,-500.797 518.926,-501.719 518.841,-502.65 518.623,-503.587 518.277,-504.529 517.808,-505.471 517.22,-506.413 516.52,-507.35 515.712,-508.281 514.804,-509.203 513.8,-510.114 512.706,-511.011 511.53,-511.891 510.277,-512.752 508.952,-513.592 507.563,-514.408 506.114,-515.199 504.612,-515.961 503.061,-516.694 501.467,-517.395 499.834,-518.061 498.167,-518.692 496.469,-519.285 494.746,-519.839 493,-520.353 491.235,-520.824 489.453,-521.252 487.657,-521.636 485.85,-521.973 484.033,-522.265 482.209,-522.509 480.378,-522.705 478.544,-522.852 476.706,-522.951 474.866,-523 473.026,-523 471.187,-522.951 469.349,-522.852 467.514,-522.705 465.684,-522.509 463.86,-522.265 462.043,-521.973 460.236,-521.636 458.44,-521.252 456.658,-520.824 454.893,-520.353 453.147,-519.839 451.423,-519.285 449.726,-518.692 448.059,-518.061 446.426,-517.395 444.832,-516.694 443.281,-515.961 441.778,-515.199 440.33,-514.408 438.94,-513.592 437.616,-512.752 436.363,-511.891 435.186,-511.011 434.093,-510.114 433.089,-509.203 432.18,-508.281 431.373,-507.35 430.672,-506.413 430.085,-505.471 429.616,-504.529 429.27,-503.587 429.052,-502.65 428.967,-501.719 429.019,-500.797 429.21,-499.886 429.544,-498.989 430.023,-498.109 430.648,-497.248 431.421,-496.408 432.341,-495.592 433.408,-494.801 434.62,-494.039 435.976,-493.306 437.472,-492.605 439.105,-491.939 440.871,-491.308 442.763,-490.715 444.776,-490.161 446.904,-489.647 449.139,-489.176 451.472,-488.748 453.896,-488.364 456.401,-488.027 458.977,-487.735 461.614,-487.491 464.301,-487.295 467.028,-487.148 469.784,-487.049 472.557,-487 475.336,-487 478.109,-487.049"/>
<text text-anchor="middle" x="473.946" y="-501.3" font-family="Times New Roman,serif" font-size="14.00">initializer</text>
</g>
<!-- 35&#45;&#45;49 -->
<g id="edge38" class="edge"><title>35&#45;&#45;49</title>
<path fill="none" stroke="black" stroke-dasharray="1,5" d="M671.824,-575.53C641.725,-566.343 579.621,-546.953 527.946,-528 519.203,-524.793 509.769,-521.05 501.271,-517.57"/>
</g>
<!-- 50 -->
<g id="node45" class="node"><title>50</title>
<polygon fill="none" stroke="black" points="589.343,-487.049 592.255,-487.148 595.136,-487.295 597.975,-487.491 600.761,-487.735 603.482,-488.027 606.128,-488.364 608.689,-488.748 611.154,-489.176 613.515,-489.647 615.763,-490.161 617.89,-490.715 619.889,-491.308 621.754,-491.939 623.479,-492.605 625.059,-493.306 626.492,-494.039 627.773,-494.801 628.9,-495.592 629.872,-496.408 630.688,-497.248 631.349,-498.109 631.855,-498.989 632.207,-499.886 632.41,-500.797 632.464,-501.719 632.374,-502.65 632.144,-503.587 631.779,-504.529 631.283,-505.471 630.663,-506.413 629.923,-507.35 629.07,-508.281 628.109,-509.203 627.049,-510.114 625.894,-511.011 624.651,-511.891 623.327,-512.752 621.928,-513.592 620.46,-514.408 618.93,-515.199 617.343,-515.961 615.704,-516.694 614.02,-517.395 612.295,-518.061 610.533,-518.692 608.741,-519.285 606.92,-519.839 605.075,-520.353 603.21,-520.824 601.328,-521.252 599.431,-521.636 597.522,-521.973 595.602,-522.265 593.675,-522.509 591.741,-522.705 589.803,-522.852 587.862,-522.951 585.918,-523 583.974,-523 582.031,-522.951 580.089,-522.852 578.151,-522.705 576.218,-522.509 574.29,-522.265 572.371,-521.973 570.462,-521.636 568.565,-521.252 566.682,-520.824 564.817,-520.353 562.973,-519.839 561.152,-519.285 559.359,-518.692 557.598,-518.061 555.873,-517.395 554.189,-516.694 552.55,-515.961 550.963,-515.199 549.432,-514.408 547.965,-513.592 546.566,-512.752 545.242,-511.891 543.999,-511.011 542.844,-510.114 541.783,-509.203 540.823,-508.281 539.97,-507.35 539.23,-506.413 538.609,-505.471 538.114,-504.529 537.748,-503.587 537.519,-502.65 537.429,-501.719 537.483,-500.797 537.685,-499.886 538.038,-498.989 538.544,-498.109 539.205,-497.248 540.021,-496.408 540.993,-495.592 542.12,-494.801 543.401,-494.039 544.833,-493.306 546.414,-492.605 548.139,-491.939 550.004,-491.308 552.003,-490.715 554.13,-490.161 556.378,-489.647 558.739,-489.176 561.204,-488.748 563.764,-488.364 566.41,-488.027 569.132,-487.735 571.918,-487.491 574.757,-487.295 577.638,-487.148 580.549,-487.049 583.479,-487 586.414,-487 589.343,-487.049"/>
<text text-anchor="middle" x="584.946" y="-501.3" font-family="Times New Roman,serif" font-size="14.00">condition</text>
</g>
<!-- 35&#45;&#45;50 -->
<g id="edge39" class="edge"><title>35&#45;&#45;50</title>
<path fill="none" stroke="black" stroke-dasharray="1,5" d="M671.657,-567.936C653.09,-554.674 624.412,-534.189 605.176,-520.45"/>
</g>
<!-- 51 -->
<g id="node46" class="node"><title>51</title>
<polygon fill="none" stroke="black" points="693.511,-487.049 695.871,-487.148 698.207,-487.295 700.509,-487.491 702.767,-487.735 704.973,-488.027 707.118,-488.364 709.194,-488.748 711.193,-489.176 713.107,-489.647 714.929,-490.161 716.653,-490.715 718.274,-491.308 719.786,-491.939 721.184,-492.605 722.466,-493.306 723.627,-494.039 724.665,-494.801 725.579,-495.592 726.367,-496.408 727.029,-497.248 727.564,-498.109 727.974,-498.989 728.26,-499.886 728.424,-500.797 728.468,-501.719 728.396,-502.65 728.209,-503.587 727.913,-504.529 727.511,-505.471 727.008,-506.413 726.408,-507.35 725.717,-508.281 724.938,-509.203 724.078,-510.114 723.142,-511.011 722.135,-511.891 721.061,-512.752 719.927,-513.592 718.737,-514.408 717.496,-515.199 716.21,-515.961 714.881,-516.694 713.516,-517.395 712.117,-518.061 710.69,-518.692 709.236,-519.285 707.76,-519.839 706.265,-520.353 704.753,-520.824 703.227,-521.252 701.689,-521.636 700.141,-521.973 698.585,-522.265 697.023,-522.509 695.455,-522.705 693.884,-522.852 692.31,-522.951 690.734,-523 689.158,-523 687.583,-522.951 686.009,-522.852 684.438,-522.705 682.87,-522.509 681.308,-522.265 679.752,-521.973 678.204,-521.636 676.666,-521.252 675.14,-520.824 673.628,-520.353 672.133,-519.839 670.657,-519.285 669.203,-518.692 667.775,-518.061 666.377,-517.395 665.011,-516.694 663.683,-515.961 662.396,-515.199 661.156,-514.408 659.966,-513.592 658.832,-512.752 657.758,-511.891 656.751,-511.011 655.814,-510.114 654.955,-509.203 654.176,-508.281 653.485,-507.35 652.885,-506.413 652.382,-505.471 651.98,-504.529 651.684,-503.587 651.497,-502.65 651.424,-501.719 651.468,-500.797 651.632,-499.886 651.918,-498.989 652.329,-498.109 652.864,-497.248 653.526,-496.408 654.314,-495.592 655.228,-494.801 656.266,-494.039 657.427,-493.306 658.709,-492.605 660.107,-491.939 661.619,-491.308 663.24,-490.715 664.964,-490.161 666.786,-489.647 668.7,-489.176 670.698,-488.748 672.774,-488.364 674.919,-488.027 677.126,-487.735 679.384,-487.491 681.686,-487.295 684.022,-487.148 686.382,-487.049 688.756,-487 691.136,-487 693.511,-487.049"/>
<text text-anchor="middle" x="689.946" y="-501.3" font-family="Times New Roman,serif" font-size="14.00">iterator</text>
</g>
<!-- 35&#45;&#45;51 -->
<g id="edge40" class="edge"><title>35&#45;&#45;51</title>
<path fill="none" stroke="black" stroke-dasharray="1,5" d="M689.946,-563.981C689.946,-551.794 689.946,-535.442 689.946,-523.211"/>
</g>
<!-- 52 -->
<g id="node47" class="node"><title>52</title>
<polygon fill="none" stroke="black" points="781.878,-487.049 783.819,-487.148 785.739,-487.295 787.632,-487.491 789.489,-487.735 791.304,-488.027 793.068,-488.364 794.775,-488.748 796.418,-489.176 797.992,-489.647 799.491,-490.161 800.909,-490.715 802.241,-491.308 803.485,-491.939 804.635,-492.605 805.688,-493.306 806.643,-494.039 807.497,-494.801 808.249,-495.592 808.897,-496.408 809.441,-497.248 809.881,-498.109 810.218,-498.989 810.454,-499.886 810.588,-500.797 810.625,-501.719 810.565,-502.65 810.412,-503.587 810.168,-504.529 809.838,-505.471 809.424,-506.413 808.931,-507.35 808.362,-508.281 807.722,-509.203 807.015,-510.114 806.245,-511.011 805.416,-511.891 804.533,-512.752 803.601,-513.592 802.622,-514.408 801.602,-515.199 800.544,-515.961 799.452,-516.694 798.329,-517.395 797.179,-518.061 796.004,-518.692 794.809,-519.285 793.595,-519.839 792.366,-520.353 791.122,-520.824 789.867,-521.252 788.603,-521.636 787.33,-521.973 786.05,-522.265 784.765,-522.509 783.476,-522.705 782.184,-522.852 780.89,-522.951 779.594,-523 778.298,-523 777.003,-522.951 775.708,-522.852 774.416,-522.705 773.127,-522.509 771.842,-522.265 770.563,-521.973 769.29,-521.636 768.025,-521.252 766.77,-520.824 765.527,-520.353 764.297,-519.839 763.084,-519.285 761.888,-518.692 760.714,-518.061 759.564,-517.395 758.441,-516.694 757.349,-515.961 756.291,-515.199 755.27,-514.408 754.292,-513.592 753.359,-512.752 752.477,-511.891 751.648,-511.011 750.878,-510.114 750.171,-509.203 749.531,-508.281 748.962,-507.35 748.469,-506.413 748.055,-505.471 747.725,-504.529 747.481,-503.587 747.328,-502.65 747.268,-501.719 747.304,-500.797 747.439,-499.886 747.674,-498.989 748.012,-498.109 748.452,-497.248 748.996,-496.408 749.644,-495.592 750.396,-494.801 751.249,-494.039 752.204,-493.306 753.258,-492.605 754.408,-491.939 755.651,-491.308 756.984,-490.715 758.402,-490.161 759.901,-489.647 761.474,-489.176 763.118,-488.748 764.825,-488.364 766.589,-488.027 768.403,-487.735 770.261,-487.491 772.153,-487.295 774.074,-487.148 776.015,-487.049 777.968,-487 779.925,-487 781.878,-487.049"/>
<text text-anchor="middle" x="778.946" y="-501.3" font-family="Times New Roman,serif" font-size="14.00">body</text>
</g>
<!-- 35&#45;&#45;52 -->
<g id="edge41" class="edge"><title>35&#45;&#45;52</title>
<path fill="none" stroke="black" stroke-dasharray="1,5" d="M707.957,-565.823C724.109,-552.211 747.582,-532.431 763.051,-519.395"/>
</g>
<!-- 49&#45;&#45;22 -->
<g id="edge42" class="edge"><title>49&#45;&#45;22</title>
<path fill="none" stroke="black" d="M466.948,-487.034C461.386,-473.55 453.638,-454.767 448.048,-441.217"/>
</g>
<!-- 50&#45;&#45;25 -->
<g id="edge43" class="edge"><title>50&#45;&#45;25</title>
<path fill="none" stroke="black" d="M584.946,-486.641C584.946,-474.785 584.946,-458.972 584.946,-446.2"/>
</g>
<!-- 51&#45;&#45;29 -->
<g id="edge44" class="edge"><title>51&#45;&#45;29</title>
<path fill="none" stroke="black" d="M691.899,-486.641C693.419,-473.131 695.517,-454.482 697.028,-441.05"/>
</g>
<!-- 52&#45;&#45;34 -->
<g id="edge45" class="edge"><title>52&#45;&#45;34</title>
<path fill="none" stroke="black" d="M786.581,-487.034C792.649,-473.55 801.101,-454.767 807.199,-441.217"/>
</g>
<!-- 39 -->
<g id="node49" class="node"><title>39</title>
<polygon fill="lightblue" stroke="black" points="1029.44,-574.544 1029.44,-589.456 1000.45,-600 959.447,-600 930.456,-589.456 930.456,-574.544 959.447,-564 1000.45,-564 1029.44,-574.544"/>
<text text-anchor="middle" x="979.946" y="-578.3" font-family="Times New Roman,serif" font-size="14.00">call(print)</text>
</g>
<!-- 53&#45;&#45;39 -->
<g id="edge51" class="edge"><title>53&#45;&#45;39</title>
<path fill="none" stroke="black" d="M961.756,-636.055C965.474,-625.211 970.284,-611.183 974.023,-600.275"/>
</g>
<!-- 38 -->
<g id="node52" class="node"><title>38</title>
<polygon fill="yellow" stroke="black" points="981.946,-528 928.855,-493.5 1035.04,-493.5 981.946,-528"/>
<text text-anchor="middle" x="981.946" y="-501.3" font-family="Times New Roman,serif" font-size="14.00">pow</text>
</g>
<!-- 39&#45;&#45;38 -->
<g id="edge50" class="edge"><title>39&#45;&#45;38</title>
<path fill="none" stroke="black" d="M980.4,-563.981C980.686,-553.263 981.058,-539.325 981.365,-527.8"/>
</g>
<!-- 36 -->
<g id="node50" class="node"><title>36</title>
<polygon fill="#008b00" stroke="black" points="959.19,-405.049 962,-405.148 964.781,-405.295 967.522,-405.491 970.211,-405.735 972.837,-406.027 975.391,-406.364 977.863,-406.748 980.242,-407.176 982.521,-407.647 984.69,-408.161 986.743,-408.715 988.673,-409.308 990.473,-409.939 992.138,-410.605 993.664,-411.306 995.046,-412.039 996.282,-412.801 997.37,-413.592 998.309,-414.408 999.096,-415.248 999.734,-416.109 1000.22,-416.989 1000.56,-417.886 1000.76,-418.797 1000.81,-419.719 1000.72,-420.65 1000.5,-421.587 1000.15,-422.529 999.671,-423.471 999.072,-424.413 998.358,-425.35 997.534,-426.281 996.608,-427.203 995.584,-428.114 994.469,-429.011 993.269,-429.891 991.992,-430.752 990.641,-431.592 989.225,-432.408 987.747,-433.199 986.215,-433.961 984.634,-434.694 983.008,-435.395 981.343,-436.061 979.643,-436.692 977.913,-437.285 976.155,-437.839 974.375,-438.353 972.575,-438.824 970.758,-439.252 968.927,-439.636 967.084,-439.973 965.232,-440.265 963.371,-440.509 961.505,-440.705 959.634,-440.852 957.76,-440.951 955.885,-441 954.008,-441 952.132,-440.951 950.258,-440.852 948.388,-440.705 946.521,-440.509 944.661,-440.265 942.809,-439.973 940.966,-439.636 939.135,-439.252 937.318,-438.824 935.518,-438.353 933.737,-437.839 931.98,-437.285 930.25,-436.692 928.55,-436.061 926.884,-435.395 925.259,-434.694 923.677,-433.961 922.145,-433.199 920.668,-432.408 919.252,-431.592 917.901,-430.752 916.623,-429.891 915.424,-429.011 914.309,-428.114 913.285,-427.203 912.358,-426.281 911.535,-425.35 910.821,-424.413 910.222,-423.471 909.743,-422.529 909.391,-421.587 909.169,-420.65 909.082,-419.719 909.135,-418.797 909.33,-417.886 909.67,-416.989 910.159,-416.109 910.796,-415.248 911.584,-414.408 912.522,-413.592 913.61,-412.801 914.847,-412.039 916.229,-411.306 917.755,-410.605 919.42,-409.939 921.22,-409.308 923.149,-408.715 925.202,-408.161 927.372,-407.647 929.65,-407.176 932.03,-406.748 934.501,-406.364 937.055,-406.027 939.682,-405.735 942.371,-405.491 945.111,-405.295 947.892,-405.148 950.702,-405.049 953.53,-405 956.363,-405 959.19,-405.049"/>
<text text-anchor="middle" x="954.946" y="-419.3" font-family="Times New Roman,serif" font-size="14.00">var(sum)</text>
</g>
<!-- 37 -->
<g id="node51" class="node"><title>37</title>
<ellipse fill="orange" stroke="black" cx="1059.95" cy="-423" rx="40.8928" ry="18"/>
<text text-anchor="middle" x="1059.95" y="-419.3" font-family="Times New Roman,serif" font-size="14.00">const(2)</text>
</g>
<!-- 38&#45;&#45;36 -->
<g id="edge48" class="edge"><title>38&#45;&#45;36</title>
<path fill="none" stroke="black" d="M978.305,-493.211C973.785,-479.819 966.024,-456.822 960.697,-441.038"/>
</g>
<!-- 38&#45;&#45;37 -->
<g id="edge49" class="edge"><title>38&#45;&#45;37</title>
<path fill="none" stroke="black" d="M992.466,-493.211C1005.86,-479.478 1029.09,-455.644 1044.5,-439.846"/>
</g>
<!-- 41 -->
<g id="node53" class="node"><title>41</title>
<polygon fill="none" stroke="black" points="819.99,-766.144 819.99,-781.056 793.604,-791.6 756.289,-791.6 729.903,-781.056 729.903,-766.144 756.289,-755.6 793.604,-755.6 819.99,-766.144"/>
<polygon fill="none" stroke="black" points="823.992,-763.435 823.992,-783.765 794.374,-795.6 755.518,-795.6 725.901,-783.765 725.901,-763.435 755.518,-751.6 794.374,-751.6 823.992,-763.435"/>
<polygon fill="none" stroke="black" points="827.993,-760.727 827.993,-786.473 795.145,-799.6 754.748,-799.6 721.899,-786.473 721.899,-760.727 754.748,-747.6 795.145,-747.6 827.993,-760.727"/>
<text text-anchor="middle" x="774.946" y="-769.9" font-family="Times New Roman,serif" font-size="14.00">program</text>
</g>
<!-- 41&#45;&#45;40 -->
<g id="edge52" class="edge"><title>41&#45;&#45;40</title>
<path fill="none" stroke="black" d="M774.946,-747.464C774.946,-732.493 774.946,-715.65 774.946,-711.674"/>
</g>
</g>
</svg>
